# xmcd
#
# Track frame offsets: 
#        150
#        13415
#        26377
#        38870
#        53377
#        66435
#        77622
#        91812
#        105022
#        123805
#        134552
#        150810
#        162932
#        180835
#
# Disc length: 2583 seconds
#
# Revision: 3
# Processed by: cddbd v1.5.1PL0 Copyright (c) Steve Scherf et al.
# Submitted via: ExactAudioCopy v0.90b4
#
DISCID=950a150e
DTITLE=Big Sandy And His Fly-Rite Boys - Feelin' Kinda Lucky
DYEAR=1997
DGENRE=Country
TTITLE0=The Loser's Blues
TTITLE1=Feelin' Kinda Lucky
TTITLE2=Let's Make It... Tonite!
TTITLE3=If I Knew Now (What I Knew Then)
TTITLE4=What's It To Ya?
TTITLE5=Have You Ever Had The Feelin'
TTITLE6=The Greatest Story Ever Told
TTITLE7=Strange Love
TTITLE8=I'm Gonna Leave
TTITLE9=Bugtussle Saturday Night
TTITLE10=Three Years Blind
TTITLE11=Have and Hold
TTITLE12=Big '49
TTITLE13=Backdoor Dan
EXTD=
EXTT0=
EXTT1=
EXTT2=
EXTT3=
EXTT4=
EXTT5=
EXTT6=
EXTT7=
EXTT8=
EXTT9=
EXTT10=
EXTT11=
EXTT12=
EXTT13=
PLAYORDER=
